<svg id="visual" viewBox="0 0 900 600" width="900" height="600" xmlns="http://www.w3.org/2000/svg" xmlns:xlink="http://www.w3.org/1999/xlink" version="1.1"><g fill="#f7f1f2"><circle r="35" cx="349" cy="19"></circle><circle r="3" cx="384" cy="87"></circle><circle r="3" cx="304" cy="245"></circle><circle r="19" cx="417" cy="541"></circle><circle r="19" cx="891" cy="191"></circle><circle r="17" cx="186" cy="112"></circle><circle r="2" cx="840" cy="277"></circle><circle r="21" cx="146" cy="7"></circle><circle r="7" cx="871" cy="526"></circle><circle r="16" cx="865" cy="86"></circle><circle r="21" cx="481" cy="146"></circle><circle r="32" cx="21" cy="108"></circle><circle r="15" cx="589" cy="597"></circle><circle r="8" cx="606" cy="498"></circle><circle r="17" cx="36" cy="489"></circle><circle r="22" cx="738" cy="493"></circle><circle r="15" cx="726" cy="423"></circle><circle r="5" cx="496" cy="31"></circle><circle r="25" cx="637" cy="98"></circle><circle r="29" cx="571" cy="162"></circle><circle r="23" cx="719" cy="60"></circle><circle r="23" cx="501" cy="494"></circle><circle r="16" cx="310" cy="378"></circle><circle r="18" cx="45" cy="579"></circle><circle r="20" cx="463" cy="234"></circle><circle r="32" cx="731" cy="153"></circle><circle r="22" cx="176" cy="273"></circle><circle r="21" cx="266" cy="511"></circle><circle r="13" cx="640" cy="305"></circle><circle r="31" cx="898" cy="369"></circle><circle r="27" cx="574" cy="424"></circle><circle r="14" cx="457" cy="428"></circle><circle r="13" cx="625" cy="13"></circle><circle r="29" cx="824" cy="152"></circle><circle r="16" cx="156" cy="409"></circle><circle r="6" cx="340" cy="148"></circle><circle r="9" cx="650" cy="399"></circle><circle r="4" cx="415" cy="353"></circle><circle r="14" cx="538" cy="317"></circle></g></svg>